<?xml version="1.0" encoding="UTF-8"?>
<svg version="1.1" xmlns="http://www.w3.org/2000/svg" width="500" height="500">
<path d="M0 0 C165 0 330 0 500 0 C500 165 500 330 500 500 C335 500 170 500 0 500 C0 335 0 170 0 0 Z " fill="#FEFEFE" transform="translate(0,0)"/>
<path d="M0 0 C-4.67438749 7.25904881 -9.7725296 14.13458887 -15 21 C-19.01645674 20.39753149 -21.52990829 18.3198775 -24.75 15.9375 C-47.90003776 -0.5627416 -75.50302338 -7.36661221 -103.68359375 -2.75 C-115.47546463 -0.08328715 -125.78797768 5.77962911 -132.71484375 15.8515625 C-138.30907933 25.20362807 -139.56468706 34.60181172 -137.25 45.3125 C-132.87861043 58.20809922 -125.20267634 64.18319613 -113.28808594 70.2109375 C-101.99354749 75.64418692 -89.9055985 78.30274362 -77.77020264 81.11773682 C-62.43679563 84.69817013 -47.32762223 88.30767077 -33 95 C-32.30390625 95.32178223 -31.6078125 95.64356445 -30.890625 95.97509766 C-15.54499435 103.22605237 -2.18944444 113.49040316 4.2578125 129.72265625 C9.51380202 145.85024516 8.84640828 165.83603862 1.4375 181.0625 C-7.56385343 198.54931086 -21.85511625 210.45743032 -40.38378906 216.81835938 C-74.99375948 227.61056658 -112.34906586 222.77217642 -144.25390625 206.10546875 C-148.93941488 203.5548846 -153.2567729 200.54073622 -157.546875 197.37109375 C-159.82150404 195.83248618 -159.82150404 195.83248618 -161.9921875 196.0234375 C-164.78661598 197.38259532 -166.97041435 199.22101009 -169.375 201.1875 C-185.47286751 213.77137873 -206.95638395 218.35143246 -226.9987793 218.22705078 C-228.26886495 218.22729185 -229.5389506 218.22753292 -230.84752369 218.2277813 C-234.24893575 218.22822842 -237.65020392 218.21673037 -241.05158234 218.20256042 C-244.2562671 218.19107674 -247.46094655 218.19062913 -250.66564941 218.18920898 C-260.00628495 218.17876037 -269.34689435 218.15083783 -278.6875 218.125 C-299.580625 218.08375 -320.47375 218.0425 -342 218 C-342 137.48 -342 56.96 -342 -26 C-198.30926938 -26 -198.30926938 -26 -175.2578125 -6.34765625 C-170.2793949 -1.17113553 -164.13974578 5.7757652 -163 13 C-162.34 13 -161.68 13 -161 13 C-160.74605469 12.12214844 -160.49210938 11.24429688 -160.23046875 10.33984375 C-154.39752389 -5.49243515 -138.95575892 -15.85933049 -124.375 -22.875 C-82.95242394 -40.56652733 -34.11102551 -25.89410653 0 0 Z " fill="#010101" transform="translate(424,156)"/>
<path d="M0 0 C2.90748557 1.45374278 3.24641399 3.49411675 4.5625 6.4375 C13.04764416 23.61126899 29.54647939 32.73497891 47 39 C56.9253766 42.33913332 66.90953411 45.05344907 77.11193848 47.39553833 C126.19403615 58.73366743 126.19403615 58.73366743 138 74 C144.07713986 83.75540872 144.74649868 96.01600602 142.31640625 107.125 C137.98380169 118.63067186 129.57347404 126.71183243 118.625 131.90234375 C96.41953776 141.18766353 69.55368417 138.66514186 47.25 130.8125 C36.03202022 126.11424816 25.2169289 119.96240247 16 112 C16.144375 111.35417969 16.28875 110.70835937 16.4375 110.04296875 C19.87670784 92.58421231 19.47338898 75.52326097 9.5625 60.2109375 C-0.38055985 46.14150781 -15.81813944 38.1136025 -32 33 C-32 32.34 -32 31.68 -32 31 C-31.0821875 30.50371094 -30.164375 30.00742188 -29.21875 29.49609375 C-15.99362129 22.22993578 -6.32169459 14.13084673 0 0 Z " fill="#FDFDFD" transform="translate(260,216)"/>
<path d="M0 0 C14.293125 -0.061875 28.58625 -0.12375 43.3125 -0.1875 C47.78594971 -0.21481201 52.25939941 -0.24212402 56.8684082 -0.27026367 C62.43200684 -0.28381348 62.43200684 -0.28381348 65.05607605 -0.28633118 C66.84609735 -0.29086657 68.6361109 -0.3012644 70.42607117 -0.31672668 C91.96933997 -0.49313338 114.74440156 0.572517 131.6875 15.57421875 C140.35985737 24.67140444 142.468009 34.30370982 142.24609375 46.53515625 C141.45508699 57.67202919 136.12275565 66.73001618 128.109375 74.37109375 C123.81416011 77.68795414 118.95771645 79.85470845 114 82 C113.27039063 82.3196875 112.54078125 82.639375 111.7890625 82.96875 C98.15675343 88.19185692 82.31122653 87.27637168 67.96875 87.1953125 C65.9962173 87.19157199 64.02368271 87.18872994 62.05114746 87.18673706 C56.91549344 87.17918218 51.77995658 87.15960592 46.64434814 87.1373291 C40.45244263 87.11305042 34.26049745 87.10405083 28.06855774 87.09242249 C18.7122909 87.073175 9.35628 87.03479608 0 87 C0 58.29 0 29.58 0 0 Z " fill="#FDFDFD" transform="translate(109,263)"/>
<path d="M0 0 C20.356875 -0.061875 20.356875 -0.061875 41.125 -0.125 C45.38293457 -0.14320801 49.64086914 -0.16141602 54.02783203 -0.18017578 C59.29663086 -0.18920898 59.29663086 -0.18920898 61.77658081 -0.19088745 C63.4793096 -0.19392411 65.18203456 -0.20088495 66.88473511 -0.21115112 C85.79579094 -0.31930134 104.4845393 0.11815068 119 14 C126.05219584 21.70174019 128.56141825 29.51745057 128.4375 39.8125 C128.42614014 41.13362793 128.42614014 41.13362793 128.41455078 42.48144531 C128.12315822 54.01378458 124.42036285 62.88597653 116.03515625 70.87109375 C101.01476975 83.501256 82.14831 84.46395786 63.4765625 84.29296875 C61.8426952 84.28854465 60.2088236 84.2854923 58.57495117 84.28381348 C52.59156826 84.26823833 46.60827703 84.22635543 40.625 84.1875 C20.515625 84.0946875 20.515625 84.0946875 0 84 C0 56.28 0 28.56 0 0 Z " fill="#FEFEFE" transform="translate(109,155)"/>
</svg>
